<?xml version="1.0" encoding="UTF-8" standalone="no"?>
<!DOCTYPE svg PUBLIC "-//W3C//DTD SVG 1.1//EN" "http://www.w3.org/Graphics/SVG/1.1/DTD/svg11.dtd">
<svg xmlns="http://www.w3.org/2000/svg" version="1.1" viewBox="0.00 0.00 512.00 512.00">
<path fill="#ffffff" d="
  M 512.00 253.89
  L 512.00 258.77
  Q 508.41 282.74 486.37 290.84
  C 482.53 292.25 478.54 292.74 474.50 292.74
  Q 294.08 292.80 114.30 292.80
  Q 112.75 292.80 114.18 293.38
  Q 120.62 296.01 126.44 299.12
  C 132.85 302.54 138.83 307.53 144.01 312.75
  Q 190.60 359.68 237.81 406.78
  Q 247.41 416.36 249.82 420.52
  Q 257.63 433.97 254.19 448.71
  C 247.67 476.69 213.07 483.95 193.56 464.44
  Q 105.28 376.17 11.07 281.92
  Q 1.39 272.24 0.00 258.36
  L 0.00 253.02
  Q 1.46 239.23 11.09 229.59
  Q 99.14 141.50 187.20 53.42
  Q 197.41 43.22 201.48 41.06
  C 223.77 29.25 250.74 41.50 254.73 66.64
  Q 256.83 79.93 249.99 91.84
  Q 247.52 96.15 238.16 105.46
  Q 189.37 153.97 142.63 200.91
  C 134.51 209.05 125.19 214.56 114.82 219.05
  Q 113.46 219.64 114.94 219.64
  Q 295.18 219.59 475.65 219.65
  Q 489.30 219.66 499.93 229.07
  Q 510.53 238.46 512.00 253.89
  Z"
/>
</svg>
